<svg width="20" height="20" viewBox="0 0 20 20" fill="none" xmlns="http://www.w3.org/2000/svg"><path fill-rule="evenodd" clip-rule="evenodd" d="M19.637 17.911l-4.123-4.067a8.44 8.44 0 0 0 1.858-5.276C17.372 3.844 13.476 0 8.687 0 3.897 0 0 3.844 0 8.568s3.896 8.568 8.687 8.568a8.717 8.717 0 0 0 5.034-1.6l4.16 4.106c.243.24.56.358.879.358.317 0 .634-.119.877-.358a1.213 1.213 0 0 0 0-1.73zM2.48 8.568c0-3.374 2.784-6.12 6.206-6.12 3.42 0 6.203 2.746 6.203 6.12 0 3.375-2.782 6.12-6.203 6.12-3.422 0-6.206-2.745-6.206-6.12z" fill="#2C3E51"/></svg>