<svg width="20" height="20" viewBox="0 0 20 20" fill="none" xmlns="http://www.w3.org/2000/svg">
<path fill-rule="evenodd" clip-rule="evenodd" d="M19.6369 17.9113L15.5145 13.8444C16.6742 12.3891 17.372 10.5582 17.372 8.56842C17.372 3.84385 13.4756 0 8.68658 0C3.89644 0 0 3.84385 0 8.56842C0 13.2919 3.89644 17.1358 8.68658 17.1358C10.563 17.1358 12.2981 16.5381 13.7205 15.5364L17.8818 19.6422C18.1244 19.8811 18.4416 20 18.7599 20C19.0771 20 19.3943 19.8811 19.6369 19.6422C20.121 19.1645 20.121 18.3901 19.6369 17.9113ZM2.48077 8.56842C2.48077 5.19388 5.26537 2.44857 8.68658 2.44857C12.1078 2.44857 14.8902 5.19388 14.8902 8.56842C14.8902 11.943 12.1078 14.6872 8.68658 14.6872C5.26537 14.6872 2.48077 11.943 2.48077 8.56842Z" fill="#2C3E51"/>
</svg>
